HIERARCHY
ROOT Joint1
{
	OFFSET 0.000000 0.000000 0.000000
	CHANNELS 6 Xposition Yposition Zposition Xrotation Yrotation Zrotation
	JOINT Joint2
	{
		OFFSET -0.000000 0.000000 1.456275
		CHANNELS 6 Xposition Yposition Zposition Xrotation Yrotation Zrotation
		JOINT Joint3
		{
			OFFSET -0.000000 0.000002 1.471446
			CHANNELS 6 Xposition Yposition Zposition Xrotation Yrotation Zrotation
			JOINT Joint4
			{
				OFFSET 0.625745 0.000000 0.917755
				CHANNELS 6 Xposition Yposition Zposition Xrotation Yrotation Zrotation
				JOINT Joint5
				{
					OFFSET -0.629534 0.000001 0.940221
					CHANNELS 6 Xposition Yposition Zposition Xrotation Yrotation Zrotation
					JOINT Joint6
					{
						OFFSET -0.000001 0.113772 1.960660
						CHANNELS 6 Xposition Yposition Zposition Xrotation Yrotation Zrotation
						JOINT Joint7
						{
							OFFSET -0.669733 -0.113771 0.388340
							CHANNELS 6 Xposition Yposition Zposition Xrotation Yrotation Zrotation
							End Site
							{
								OFFSET 0.005509 0.005509 0.438980
							}
						}
					}
				}
			}
		}
	}
}
MOTION
Frames: 12
Frame Time: 0.041667
0.000000 0.000000 0.000000 -0.000000 1.019410 -116.015025 -0.000000 -0.000000 1.456275 -0.000001 -33.194801 0.000001 -0.000000 0.000002 1.471446 -0.000010 -1.133464 -151.608739 0.625745 0.000000 0.917755 0.000001 50.902514 0.000002 -0.629534 0.000001 0.940221 -0.000001 1.709735 121.224752 -0.000001 0.113772 1.960660 -88.303882 139.810475 0.000002 -0.669733 -0.113771 0.388340 -0.065995 3.340338 96.047753 
0.000000 0.000000 0.000000 -0.000000 1.019410 -115.892000 -0.000000 0.000000 1.456275 -0.000001 -33.207304 0.000001 -0.000000 0.000002 1.471446 -0.000008 -1.133462 -151.447997 0.625745 0.000000 0.917754 0.000001 50.991723 0.000002 -0.629534 0.000001 0.940221 -0.000001 1.709737 121.096180 -0.000001 0.113772 1.960661 -88.303882 139.757610 0.000002 -0.669733 -0.113771 0.388340 -0.066565 3.340798 96.089014 
0.000000 0.000000 0.000000 -0.000000 1.019410 -115.694621 -0.000000 -0.000000 1.456275 0.000000 -33.227357 0.000001 -0.000000 0.000002 1.471446 -0.000010 -1.133462 -151.190090 0.625745 0.000000 0.917755 -0.000002 51.134860 0.000002 -0.629533 0.000001 0.940221 -0.000002 1.709736 120.889868 -0.000001 0.113772 1.960661 -88.303882 139.672806 0.000003 -0.669733 -0.113771 0.388340 -0.067481 3.341535 96.155226 
0.000000 0.000000 0.000000 -0.000000 1.019410 -115.429131 -0.000000 0.000000 1.456275 0.000001 -33.254340 -0.000001 -0.000000 0.000002 1.471446 -0.000010 -1.133462 -150.843184 0.625745 0.000000 0.917755 0.000000 51.327389 0.000001 -0.629534 0.000001 0.940221 -0.000001 1.709736 120.612371 -0.000000 0.113772 1.960660 -88.303882 139.558755 0.000002 -0.669733 -0.113771 0.388340 -0.068713 3.342524 96.244271 
0.000000 0.000000 0.000000 -0.000000 1.019410 -115.101774 -0.000000 -0.000000 1.456275 0.000002 -33.287603 0.000000 -0.000000 0.000002 1.471446 -0.000010 -1.133463 -150.415464 0.625745 0.000000 0.917755 0.000001 51.564780 0.000001 -0.629534 0.000001 0.940221 -0.000001 1.709736 120.270260 -0.000001 0.113772 1.960660 -88.303882 139.418122 0.000002 -0.669733 -0.113771 0.388340 -0.070235 3.343741 96.354066 
0.000000 0.000000 0.000000 -0.000000 1.019410 -114.718833 -0.000000 -0.000000 1.456275 0.000000 -33.326511 0.000001 -0.000000 0.000002 1.471446 -0.000010 -1.133462 -149.915098 0.625745 0.000000 0.917755 0.000002 51.842485 0.000003 -0.629533 0.000001 0.940221 -0.000001 1.709735 119.870025 -0.000001 0.113772 1.960660 -88.303882 139.253596 0.000002 -0.669734 -0.113771 0.388340 -0.072019 3.345163 96.482515 
0.000000 0.000000 0.000000 -0.000000 1.019410 -114.286550 -0.000000 0.000000 1.456275 -0.000001 -33.370436 0.000002 -0.000000 0.000002 1.471446 -0.000010 -1.133458 -149.350269 0.625745 0.000000 0.917755 -0.000000 52.155970 0.000001 -0.629533 0.000001 0.940221 -0.000001 1.709736 119.418208 -0.000001 0.113772 1.960661 -88.303882 139.067883 0.000002 -0.669733 -0.113771 0.388340 -0.074036 3.346760 96.627506 
0.000000 0.000000 0.000000 -0.000000 1.019410 -113.811176 -0.000000 -0.000000 1.456275 0.000001 -33.418736 -0.000000 -0.000000 0.000002 1.471446 -0.000012 -1.133462 -148.729145 0.625745 0.000000 0.917755 -0.000000 52.500693 0.000003 -0.629534 0.000001 0.940221 -0.000001 1.709736 118.921380 -0.000001 0.113771 1.960660 -88.303882 138.863661 0.000003 -0.669733 -0.113772 0.388340 -0.076259 3.348512 96.786943 
0.000000 0.000000 0.000000 -0.000000 1.019410 -113.298994 -0.000000 0.000000 1.456275 0.000002 -33.470779 0.000001 -0.000000 0.000002 1.471446 -0.000011 -1.133462 -148.059923 0.625745 0.000001 0.917755 -0.000001 52.872132 0.000004 -0.629534 0.000001 0.940221 -0.000001 1.709736 118.386071 -0.000001 0.113772 1.960660 -88.303882 138.643619 0.000002 -0.669733 -0.113772 0.388340 -0.078659 3.350393 96.958743 
0.000000 0.000000 0.000000 -0.000000 1.019410 -112.756226 -0.000000 0.000000 1.456275 -0.000001 -33.525932 0.000001 -0.000000 0.000002 1.471446 -0.000012 -1.133459 -147.350731 0.625744 0.000000 0.917755 0.000000 53.265719 0.000003 -0.629534 0.000001 0.940221 -0.000001 1.709735 117.818810 -0.000001 0.113772 1.960660 -88.303882 138.410423 0.000002 -0.669733 -0.113771 0.388340 -0.081210 3.352379 97.140788 
0.000000 0.000000 0.000000 -0.000000 1.019410 -112.189170 -0.000000 0.000000 1.456275 -0.000001 -33.583552 0.000002 -0.000000 0.000002 1.471446 -0.000011 -1.133460 -146.609778 0.625745 0.000001 0.917755 -0.000001 53.676954 0.000002 -0.629534 0.000001 0.940221 -0.000002 1.709736 117.226127 -0.000000 0.113772 1.960660 -88.303882 138.166804 0.000002 -0.669733 -0.113771 0.388340 -0.083881 3.354444 97.330995 
0.000000 0.000000 0.000000 -0.000000 1.019410 -111.596945 -0.000000 -0.000000 1.456275 -0.000000 -33.643729 -0.000000 -0.000000 0.000002 1.471446 -0.000011 -1.133461 -145.835959 0.625745 0.000000 0.917755 -0.000004 54.106412 0.000005 -0.629534 0.000001 0.940221 -0.000002 1.709736 116.607162 -0.000001 0.113772 1.960660 -88.303882 137.912379 0.000004 -0.669733 -0.113771 0.388340 -0.086678 3.356591 97.529630 
